:FULLY-SPECIFIED
:FORCE-ALL-JOINTS-BE-3DOF
:DEGREES
544
root 7.63733 15.0502 -3.79852 -177.198 53.9034 179.125
lfemur -29.238 -2.46212 -18.6467
ltibia 75.0669 -0 0
lfoot -34.9462 -3.71573 0.205026
ltoes -7.17223 0 0
rfemur -46.2802 0.382866 -3.20977
rtibia 47.5101 -0 0
rfoot 5.06794 5.60514 0.238045
rtoes -38.8049 0 0
lowerback 11.4361 0.133484 0.768367
upperback 5.01024 0.915669 6.04368
thorax -1.24986 0.62355 5.76059
lowerneck -3.76009 -15.5184 -5.86546
upperneck 10.7307 -20.9437 6.37825
head 5.14353 -10.1389 1.46537
lclavicle 6.99722e-014 4.45278e-014 0
lhumerus -44.3061 -16.8523 106.89
lradius 56.5656 -0 0
lwrist 23.5956 0 0
lhand -22.1953 -6.13482 -0.0375451
lfingers 7.12502 -0 0
lthumb 4.21947 23.77 -0.0387431
rclavicle 6.99722e-014 4.45278e-014 0
rhumerus 16.6039 13.9798 -79.4585
rradius 136.08 -0 0
rwrist -46.9464 0 0
rhand -26.4188 -22.1311 -0.00778211
rfingers 7.12502 -0 0
rthumb 0.141252 -52.1078 -0.00750742
545
root 7.67187 15.043 -3.7717 -177.277 53.7843 179.047
lfemur -29.1715 -2.27724 -18.4219
ltibia 75.0454 -0 0
lfoot -35.1594 -4.1755 0.203315
ltoes -7.11712 0 0
rfemur -46.2332 0.278535 -3.05872
rtibia 47.6907 -0 0
rfoot 4.69653 5.29869 0.236058
rtoes -38.6844 0 0
lowerback 11.3761 0.0737929 0.698144
upperback 5.00653 0.819585 5.97915
thorax -1.21188 0.572514 5.74415
lowerneck -3.6498 -15.4755 -5.80659
upperneck 10.5632 -20.8937 6.43723
head 5.07064 -10.1178 1.49591
lclavicle 6.99722e-014 4.45278e-014 0
lhumerus -44.3815 -16.2538 106.484
lradius 56.3111 -0 0
lwrist 23.8578 0 0
lhand -22.4447 -6.0629 -0.0372321
lfingers 7.12502 -0 0
lthumb 3.97868 23.8469 -0.0384201
rclavicle 6.99722e-014 4.45278e-014 0
rhumerus 16.6919 14.2112 -79.5456
rradius 135.997 -0 0
rwrist -46.7604 0 0
rhand -26.4955 -22.0827 -0.00771725
rfingers 7.12502 -0 0
rthumb 0.0671728 -52.0594 -0.00744485
546
root 7.70641 15.0358 -3.74489 -177.356 53.6652 178.97
lfemur -29.1044 -2.09262 -18.197
ltibia 75.0239 -0 0
lfoot -35.3726 -4.63527 0.199892
ltoes -7.06201 0 0
rfemur -46.1865 0.17408 -2.90776
rtibia 47.8713 -0 0
rfoot 4.32515 4.99226 0.232085
rtoes -38.564 0 0
lowerback 11.3162 0.0140285 0.627983
upperback 5.00292 0.723498 5.91462
thorax -1.17388 0.52149 5.72768
lowerneck -3.53948 -15.4328 -5.74764
upperneck 10.3959 -20.8436 6.49604
head 4.99776 -10.0966 1.52642
lclavicle 6.99722e-014 4.45278e-014 0
lhumerus -44.4611 -15.656 106.079
lradius 56.0566 -0 0
lwrist 24.1201 0 0
lhand -22.6941 -5.99098 -0.0366061
lfingers 7.12502 -0 0
lthumb 3.73789 23.9237 -0.0377742
rclavicle 6.99722e-014 4.45278e-014 0
rhumerus 16.7796 14.4428 -79.6324
rradius 135.913 -0 0
rwrist -46.5744 0 0
rhand -26.5722 -22.0342 -0.00758755
rfingers 7.12502 -0 0
rthumb -0.00690593 -52.011 -0.00731972
547
root 7.74095 15.0286 -3.71807 -177.435 53.5459 178.894
lfemur -29.0365 -1.90826 -17.9719
ltibia 75.0025 -0 0
lfoot -35.5858 -5.09501 0.194759
ltoes -7.0069 0 0
rfemur -46.14 0.0695017 -2.75689
rtibia 48.052 -0 0
rfoot 3.95378 4.68587 0.226127
rtoes -38.4435 0 0
lowerback 11.2563 -0.0458092 0.557884
upperback 4.99943 0.627407 5.8501
thorax -1.13587 0.470476 5.71118
lowerneck -3.42914 -15.3901 -5.68862
upperneck 10.2287 -20.7933 6.55466
head 4.92491 -10.0753 1.5569
lclavicle 6.99722e-014 4.45278e-014 0
lhumerus -44.5449 -15.0586 105.674
lradius 55.8021 -0 0
lwrist 24.3823 0 0
lhand -22.9434 -5.91907 -0.0356672
lfingers 7.12502 -0 0
lthumb 3.49711 24.0006 -0.0368052
rclavicle 6.99722e-014 4.45278e-014 0
rhumerus 16.8671 14.6746 -79.7188
rradius 135.83 -0 0
rwrist -46.3884 0 0
rhand -26.6489 -21.9858 -0.00739298
rfingers 7.12502 -0 0
rthumb -0.0809845 -51.9626 -0.00713203
548
root 7.77549 15.0214 -3.69125 -177.512 53.4267 178.818
lfemur -28.9679 -1.72417 -17.7465
ltibia 74.981 -0 0
lfoot -35.799 -5.55474 0.187916
ltoes -6.95179 0 0
rfemur -46.0938 -0.035198 -2.6061
rtibia 48.2326 -0 0
rfoot 3.58246 4.37952 0.218182
rtoes -38.323 0 0
lowerback 11.1965 -0.10572 0.487848
upperback 4.99604 0.531311 5.78559
thorax -1.09784 0.419473 5.69464
lowerneck -3.31878 -15.3476 -5.62953
upperneck 10.0617 -20.7429 6.61311
head 4.85206 -10.054 1.58736
lclavicle 6.99722e-014 4.45278e-014 0
lhumerus -44.6328 -14.4619 105.27
lradius 55.5477 -0 0
lwrist 24.6445 0 0
lhand -23.1928 -5.84717 -0.0344152
lfingers 7.12502 -0 0
lthumb 3.25632 24.0774 -0.0355134
rclavicle 6.99722e-014 4.45278e-014 0
rhumerus 16.9543 14.9064 -79.8051
rradius 135.747 -0 0
rwrist -46.2025 0 0
rhand -26.7256 -21.9373 -0.00713357
rfingers 7.12502 -0 0
rthumb -0.155063 -51.9142 -0.00688177
